<?xml version="1.0" encoding="utf-8"?>
<!-- Generator: Adobe Illustrator 19.0.0, SVG Export Plug-In . SVG Version: 6.00 Build 0)  -->
<svg version="1.1" id="Layer_2" xmlns="http://www.w3.org/2000/svg" xmlns:xlink="http://www.w3.org/1999/xlink" x="0px" y="0px"
	 viewBox="0 0 26 26" style="enable-background:new 0 0 26 26;" xml:space="preserve">
<style type="text/css">
	.st0{fill:#FFFFFF;}
</style>
<path class="st0" d="M5.9,19.1L3.3,5.7C4,5.4,4.7,5.3,5.2,5.3c0.6,0,1.1,0.1,1.3,0.4C6.8,6,7,6.5,7.1,7.2l0.9,5.7
	c0.3,1.7,0.5,2.9,0.5,3.6c0.1,0.7,0.1,1,0.1,1.1c0,0,0.1,0,0.1,0l1.8-11.8C11.2,5.7,12,5.6,13,5.6c1,0,1.7,0.1,2.2,0.2l1.7,11.5
	c0,0.1,0,0.2,0.1,0.2c0,0,0.1,0,0.2,0c0.1-1.4,0.4-2.9,0.7-4.7L19,5.5c0.4-0.1,0.9-0.1,1.5-0.1c0.7,0,1.3,0.1,1.8,0.2l0.2,0.2
	l-2.9,14.7c-1,0.1-1.8,0.2-2.7,0.2c-0.8,0-1.4-0.1-1.8-0.3c-0.4-0.2-0.6-0.6-0.7-1.3l-0.7-4.8c-0.3-1.7-0.5-3.4-0.6-5.1h-0.2
	c-0.2,1.4-0.4,3.1-0.7,5.1l-1,6.2c-1,0.1-1.9,0.2-2.7,0.2c-0.8,0-1.4-0.1-1.7-0.3C6.3,20.1,6.1,19.7,5.9,19.1z"/>
</svg>
